<svg preserveAspectRatio="none" width="100%" height="100%" overflow="visible" style="display: block;" viewBox="0 0 283.701 283.141" fill="none" xmlns="http://www.w3.org/2000/svg">
<path id="Star 1" d="M141.85 0L143.56 128.594L177.197 4.4653L146.873 129.444L210.322 17.5806L149.87 131.092L239.145 38.5219L152.364 133.433L261.855 65.9733L154.196 136.321L277.025 98.2099L155.253 139.574L283.701 133.206L155.468 142.987L281.463 168.763L154.827 146.347L270.454 202.647L153.371 149.442L251.364 232.728L151.191 152.077L225.393 257.117L148.424 154.088L194.172 274.281L145.244 155.347L159.664 283.141L141.85 155.775L124.037 283.141L138.457 155.347L89.5284 274.281L135.277 154.088L58.3079 257.117L132.51 152.077L32.3367 232.728L130.33 149.442L13.2465 202.647L128.874 146.347L2.23708 168.763L128.233 142.987L0 133.206L128.447 139.574L6.67592 98.2099L129.504 136.321L21.8453 65.9733L131.337 133.433L44.5551 38.5219L133.83 131.092L73.3783 17.5806L136.827 129.444L106.504 4.4653L140.14 128.594L141.85 0Z" fill="var(--fill-0, #FFFEFE)" fill-opacity="0.2"/>
</svg>
