<svg preserveAspectRatio="none" width="100%" height="100%" overflow="visible" style="display: block;" viewBox="0 0 94 93" fill="none" xmlns="http://www.w3.org/2000/svg">
<g id="Vector" style="mix-blend-mode:overlay">
<path d="M86.3091 46.5C86.3091 25.0956 68.746 7.6789 47 7.6789C25.254 7.6789 7.69091 25.0956 7.69091 46.5C7.69091 67.9044 25.254 85.3211 47 85.3211C68.746 85.3211 86.3091 67.9044 86.3091 46.5ZM94 46.5C94 72.2172 72.9212 93 47 93C21.0788 93 0 72.2172 0 46.5C0 20.7828 21.0788 0 47 0C72.9212 0 94 20.7828 94 46.5Z" fill="var(--fill-0, black)"/>
<path d="M47.561 43.1C49.4487 43.1 50.979 44.6282 50.9791 46.5129C50.9791 48.3977 49.4488 49.9257 47.561 49.9257C45.6733 49.9256 44.1428 48.3976 44.1428 46.5129C44.143 44.6282 45.6734 43.1001 47.561 43.1Z" fill="var(--fill-0, black)"/>
<path fill-rule="evenodd" clip-rule="evenodd" d="M47.0002 15.7839C64.2263 15.784 78.1911 29.5367 78.1911 46.5004C78.1908 63.4639 64.2262 77.2158 47.0002 77.216C29.774 77.216 15.8095 63.4639 15.8092 46.5004C15.8092 29.5366 29.7739 15.7839 47.0002 15.7839ZM67.7554 57.2072C66.2119 55.5513 61.5524 54.42 59.2308 57.6404C57.6734 59.8008 55.0344 61.1839 53.1739 61.4865C51.3134 61.7894 48.8766 64.4106 49.3819 67.5065C49.8872 70.6024 52.7719 72.6753 56.1323 71.8109C59.4927 70.9464 63.0114 69.1024 67.3665 64.5803C70.1661 61.6733 69.2988 58.863 67.7554 57.2072ZM35.5581 56.8006C34.6191 55.1685 31.3033 53.814 28.579 55.3766C25.8549 56.9392 24.9278 60.3656 26.9217 63.2013C28.9156 66.037 31.8833 68.6756 37.6561 71.1527C41.3672 72.7451 43.6959 70.9443 44.7044 68.9188C45.7129 66.8933 45.1326 62.141 41.2962 61.1058C38.7227 60.4112 36.4971 58.4325 35.5581 56.8006ZM47.561 37.9808C42.8416 37.9809 39.0157 41.8009 39.0155 46.5129C39.0155 51.2249 42.8415 55.0448 47.561 55.045C52.2805 55.045 56.1064 51.225 56.1064 46.5129C56.1062 41.8009 52.2804 37.9808 47.561 37.9808ZM69.9928 33.5581C67.9352 30.0876 64.9909 30.1717 62.9803 31.2142C60.9697 32.2568 58.6326 36.4371 61.1202 39.5314C62.7891 41.6072 63.4191 44.5161 63.214 46.387C63.0091 48.258 64.8878 51.3034 68.0108 51.6446C71.1337 51.9856 73.9056 49.7636 73.9692 46.2996C74.0329 42.8353 73.1935 38.9568 69.9928 33.5581ZM33.0737 31.1117C30.8234 28.8605 27.2691 28.9056 25.0824 31.6692C22.8957 34.4327 21.1651 38.1026 20.3574 44.4965C19.8381 48.6068 22.2102 50.4011 24.4373 50.8289C26.6645 51.2565 31.0832 49.3513 31.0317 45.2739C30.997 42.5382 32.2957 39.7853 33.6112 38.4007C34.9264 37.0158 35.3239 33.363 33.0737 31.1117ZM54.9039 21.1532C51.6441 19.9651 47.698 19.4946 41.5433 20.7582C37.5868 21.5705 36.7077 24.3774 37.0402 26.6149C37.3728 28.8524 40.5702 32.4193 44.3105 31.0784C46.8196 30.1789 49.779 30.5323 51.484 31.335C53.189 32.1379 56.6849 31.356 58.025 28.5188C59.3649 25.6816 58.1636 22.3413 54.9039 21.1532Z" fill="var(--fill-0, black)"/>
</g>
</svg>
