<svg preserveAspectRatio="none" width="100%" height="100%" overflow="visible" style="display: block;" viewBox="0 0 468 157.313" fill="none" xmlns="http://www.w3.org/2000/svg">
<g id="img - chat bubble" filter="url(#filter0_d_0_11)">
<mask id="path-1-inside-1_0_11" fill="white">
<path d="M434 0C447.255 0 458 10.7452 458 24V102C458 115.255 447.255 126 434 126H421.994V144.308C421.994 146.898 418.932 148.27 416.998 146.547L393.946 126H24C10.7452 126 2.41612e-07 115.255 0 102V24C0 10.7452 10.7452 2.05357e-07 24 0H434Z"/>
</mask>
<path d="M434 0C447.255 0 458 10.7452 458 24V102C458 115.255 447.255 126 434 126H421.994V144.308C421.994 146.898 418.932 148.27 416.998 146.547L393.946 126H24C10.7452 126 2.41612e-07 115.255 0 102V24C0 10.7452 10.7452 2.05357e-07 24 0H434Z" fill="var(--fill-0, #620000)"/>
<path d="M458 24H461V24H458ZM434 126V129V129V126ZM421.994 126V123C420.337 123 418.994 124.343 418.994 126H421.994ZM421.994 144.308L424.994 144.308V144.308H421.994ZM416.998 146.547L415.002 148.786L415.002 148.787L416.998 146.547ZM393.946 126L395.942 123.76C395.393 123.271 394.682 123 393.946 123V126ZM0 102H-3V102H0ZM24 0V-3V-3V0ZM434 0V3C445.598 3 455 12.402 455 24H458H461C461 9.08831 448.912 -3 434 -3V0ZM458 24H455V102H458H461V24H458ZM458 102H455C455 113.598 445.598 123 434 123V126V129C448.912 129 461 116.912 461 102H458ZM434 126V123H421.994V126V129H434V126ZM421.994 126H418.994V144.308H421.994H424.994V126H421.994ZM421.994 144.308L418.994 144.307C418.994 144.321 418.993 144.329 418.993 144.331C418.992 144.334 418.992 144.333 418.993 144.329C418.995 144.326 418.996 144.321 418.999 144.316C419.001 144.312 419.003 144.307 419.006 144.304C419.01 144.297 419.013 144.296 419.011 144.298C419.008 144.3 419.002 144.304 418.994 144.307C418.986 144.311 418.979 144.313 418.976 144.313C418.973 144.313 418.976 144.313 418.984 144.314C418.988 144.314 418.993 144.315 418.998 144.317C419.003 144.318 419.007 144.32 419.011 144.321C419.014 144.323 419.015 144.323 419.013 144.322C419.011 144.321 419.004 144.316 418.994 144.307L416.998 146.547L415.002 148.787C418.869 152.233 424.994 149.489 424.994 144.308L421.994 144.308ZM416.998 146.547L418.994 144.307L395.942 123.76L393.946 126L391.95 128.24L415.002 148.786L416.998 146.547ZM393.946 126V123H24V126V129H393.946V126ZM24 126V123C12.402 123 3 113.598 3 102H0H-3C-3 116.912 9.08831 129 24 129V126ZM0 102H3V24H0H-3V102H0ZM0 24H3C3 12.402 12.402 3 24 3V0V-3C9.08831 -3 -3 9.08831 -3 24H0ZM24 0V3H434V0V-3H24V0Z" fill="var(--stroke-0, white)" mask="url(#path-1-inside-1_0_11)"/>
</g>
<defs>
<filter id="filter0_d_0_11" x="0" y="0" width="468" height="157.313" filterUnits="userSpaceOnUse" color-interpolation-filters="sRGB">
<feFlood flood-opacity="0" result="BackgroundImageFix"/>
<feColorMatrix in="SourceAlpha" type="matrix" values="0 0 0 0 0 0 0 0 0 0 0 0 0 0 0 0 0 0 127 0" result="hardAlpha"/>
<feOffset dx="10" dy="10"/>
<feComposite in2="hardAlpha" operator="out"/>
<feColorMatrix type="matrix" values="0 0 0 0 0.290196 0 0 0 0 0 0 0 0 0 0 0 0 0 1 0"/>
<feBlend mode="normal" in2="BackgroundImageFix" result="effect1_dropShadow_0_11"/>
<feBlend mode="normal" in="SourceGraphic" in2="effect1_dropShadow_0_11" result="shape"/>
</filter>
</defs>
</svg>
