<svg preserveAspectRatio="none" width="100%" height="100%" overflow="visible" style="display: block;" viewBox="0 0 98.8182 147.225" fill="none" xmlns="http://www.w3.org/2000/svg">
<g id="layer1">
<path id="rect4164" d="M56.8632 0.000548036H8.74631C3.91593 0.000548036 0.000133168 3.91635 0.000133168 8.74673V78.8863C0.000133168 83.7167 3.91593 87.6325 8.74631 87.6325H56.8632C61.6936 87.6325 65.6094 83.7167 65.6094 78.8863V8.74673C65.6094 3.91635 61.6936 0.000548036 56.8632 0.000548036Z" fill="var(--fill-0, #F5F0EB)"/>
<g id="Mask group">
<mask id="mask0_0_38" style="mask-type:luminance" maskUnits="userSpaceOnUse" x="0" y="0" width="66" height="88">
<g id="Group">
<path id="rect4224-8" d="M56.8634 0.000179264H8.74658C3.9162 0.000179264 0.000399503 3.91598 0.000399503 8.74636V78.8859C0.000399503 83.7163 3.9162 87.6321 8.74658 87.6321H56.8634C61.6938 87.6321 65.6096 83.7163 65.6096 78.8859V8.74636C65.6096 3.91598 61.6938 0.000179264 56.8634 0.000179264Z" fill="var(--fill-0, #FF3737)"/>
</g>
</mask>
<g mask="url(#mask0_0_38)">
<g id="path4166" filter="url(#filter0_f_0_38)">
<path fill-rule="evenodd" clip-rule="evenodd" d="M-1.04206 26.8492C-2.1094 19.617 -3.68269 4.80135 -0.278971 -0.0467977C4.15472 -5.75812 51.0567 -4.51455 57.5755 0.356814C60.3961 2.26754 15.3829 2.3709 10.2991 8.62957C5.33385 14.6136 0.142918 36.2768 -1.04206 26.8492Z" fill="var(--fill-0, white)"/>
</g>
</g>
</g>
<g id="Mask group_2">
<mask id="mask1_0_38" style="mask-type:luminance" maskUnits="userSpaceOnUse" x="33" y="59" width="66" height="89">
<g id="Group_2">
<path id="rect4218-5" d="M41.9553 147.225H90.0722C94.9026 147.225 98.8184 143.31 98.8184 138.479V68.3396C98.8184 63.5092 94.9026 59.5934 90.0722 59.5934H41.9553C37.1249 59.5934 33.2091 63.5092 33.2091 68.3396V138.479C33.2091 143.31 37.1249 147.225 41.9553 147.225Z" fill="var(--fill-0, #FF3737)"/>
</g>
</mask>
<g mask="url(#mask1_0_38)">
<g id="path4221" filter="url(#filter1_f_0_38)">
<path fill-rule="evenodd" clip-rule="evenodd" d="M65.6408 65.7258C66.3683 67.7623 67.8817 80.6936 64.478 85.5417C60.0443 91.253 16.4974 89.1403 13.8474 87.7134C11.426 86.5508 52.8999 87.7005 58.6391 80.0897C63.3606 73.5299 64.4336 62.121 65.6408 65.7258Z" fill="var(--fill-0, black)" fill-opacity="0.196078"/>
</g>
</g>
</g>
</g>
<defs>
<filter id="filter0_f_0_38" x="-3.4481" y="-4.93499" width="62.2483" height="35.2255" filterUnits="userSpaceOnUse" color-interpolation-filters="sRGB">
<feFlood flood-opacity="0" result="BackgroundImageFix"/>
<feBlend mode="normal" in="SourceGraphic" in2="BackgroundImageFix" result="shape"/>
<feGaussianBlur stdDeviation="0.548823" result="effect1_foregroundBlur_0_38"/>
</filter>
<filter id="filter1_f_0_38" x="12.6479" y="63.9398" width="55.0611" height="26.4623" filterUnits="userSpaceOnUse" color-interpolation-filters="sRGB">
<feFlood flood-opacity="0" result="BackgroundImageFix"/>
<feBlend mode="normal" in="SourceGraphic" in2="BackgroundImageFix" result="shape"/>
<feGaussianBlur stdDeviation="0.548823" result="effect1_foregroundBlur_0_38"/>
</filter>
</defs>
</svg>
