<svg preserveAspectRatio="none" width="100%" height="100%" overflow="visible" style="display: block;" viewBox="0 0 98.8182 147.225" fill="none" xmlns="http://www.w3.org/2000/svg">
<g id="layer1">
<path id="rect4164" d="M56.863 0H8.74618C3.9158 0 0 3.9158 0 8.74618V78.8857C0 83.7161 3.9158 87.6319 8.74618 87.6319H56.863C61.6934 87.6319 65.6092 83.7161 65.6092 78.8857V8.74618C65.6092 3.9158 61.6934 0 56.863 0Z" fill="var(--fill-0, #F5F0EB)"/>
<g id="Mask group">
<mask id="mask0_0_9" style="mask-type:luminance" maskUnits="userSpaceOnUse" x="0" y="0" width="66" height="88">
<g id="Group">
<path id="rect4224-8" d="M56.863 0H8.74618C3.9158 0 0 3.9158 0 8.74618V78.8857C0 83.7161 3.9158 87.6319 8.74618 87.6319H56.863C61.6934 87.6319 65.6092 83.7161 65.6092 78.8857V8.74618C65.6092 3.9158 61.6934 0 56.863 0Z" fill="var(--fill-0, #FF3737)"/>
</g>
</mask>
<g mask="url(#mask0_0_9)">
<g id="path4166" filter="url(#filter0_f_0_9)">
<path fill-rule="evenodd" clip-rule="evenodd" d="M-1.04219 26.8487C-2.10953 19.6164 -3.68282 4.8008 -0.279105 -0.0473458C4.15459 -5.75867 51.0565 -4.5151 57.5754 0.356265C60.3959 2.26699 15.3828 2.37035 10.299 8.62902C5.33372 14.6131 0.142785 36.2762 -1.04219 26.8487Z" fill="var(--fill-0, white)"/>
</g>
</g>
</g>
<g id="Mask group_2">
<mask id="mask1_0_9" style="mask-type:luminance" maskUnits="userSpaceOnUse" x="33" y="59" width="66" height="89">
<g id="Group_2">
<path id="rect4218-5" d="M41.9553 147.225H90.0722C94.9026 147.225 98.8184 143.309 98.8184 138.478V68.3389C98.8184 63.5085 94.9026 59.5927 90.0722 59.5927H41.9553C37.1249 59.5927 33.2091 63.5085 33.2091 68.3389V138.478C33.2091 143.309 37.1249 147.225 41.9553 147.225Z" fill="var(--fill-0, #FF3737)"/>
</g>
</mask>
<g mask="url(#mask1_0_9)">
<g id="path4221" filter="url(#filter1_f_0_9)">
<path fill-rule="evenodd" clip-rule="evenodd" d="M65.6408 65.7251C66.3683 67.7616 67.8817 80.6928 64.478 85.541C60.0443 91.2523 16.4974 89.1396 13.8474 87.7126C11.426 86.55 52.8999 87.6998 58.6391 80.0889C63.3606 73.5292 64.4336 62.1202 65.6408 65.7251Z" fill="var(--fill-0, black)" fill-opacity="0.196078"/>
</g>
</g>
</g>
</g>
<defs>
<filter id="filter0_f_0_9" x="-3.44823" y="-4.93554" width="62.2483" height="35.2255" filterUnits="userSpaceOnUse" color-interpolation-filters="sRGB">
<feFlood flood-opacity="0" result="BackgroundImageFix"/>
<feBlend mode="normal" in="SourceGraphic" in2="BackgroundImageFix" result="shape"/>
<feGaussianBlur stdDeviation="0.548823" result="effect1_foregroundBlur_0_9"/>
</filter>
<filter id="filter1_f_0_9" x="12.6479" y="63.939" width="55.0611" height="26.4623" filterUnits="userSpaceOnUse" color-interpolation-filters="sRGB">
<feFlood flood-opacity="0" result="BackgroundImageFix"/>
<feBlend mode="normal" in="SourceGraphic" in2="BackgroundImageFix" result="shape"/>
<feGaussianBlur stdDeviation="0.548823" result="effect1_foregroundBlur_0_9"/>
</filter>
</defs>
</svg>
