<svg preserveAspectRatio="none" width="100%" height="100%" overflow="visible" style="display: block;" viewBox="0 0 65.5963 87.4618" fill="none" xmlns="http://www.w3.org/2000/svg">
<g id="img - Front" clip-path="url(#clip0_0_4)">
<g id="layer1">
<path id="rect4164" d="M56.863 -0.0175781H8.74618C3.9158 -0.0175781 0 3.89822 0 8.7286V78.8681C0 83.6985 3.9158 87.6143 8.74618 87.6143H56.863C61.6934 87.6143 65.6092 83.6985 65.6092 78.8681V8.7286C65.6092 3.89822 61.6934 -0.0175781 56.863 -0.0175781Z" fill="var(--fill-0, #F5F0EB)"/>
<g id="Mask group">
<mask id="mask0_0_4" style="mask-type:luminance" maskUnits="userSpaceOnUse" x="0" y="-1" width="66" height="89">
<g id="Group">
<path id="rect4224-8" d="M56.863 -0.0175781H8.74618C3.9158 -0.0175781 0 3.89822 0 8.7286V78.8681C0 83.6985 3.9158 87.6143 8.74618 87.6143H56.863C61.6934 87.6143 65.6092 83.6985 65.6092 78.8681V8.7286C65.6092 3.89822 61.6934 -0.0175781 56.863 -0.0175781Z" fill="var(--fill-0, #FF3737)"/>
</g>
</mask>
<g mask="url(#mask0_0_4)">
<g id="path4166" filter="url(#filter0_f_0_4)">
<path fill-rule="evenodd" clip-rule="evenodd" d="M-1.04219 26.8311C-2.10953 19.5988 -3.68282 4.78323 -0.279105 -0.0649239C4.15459 -5.77625 51.0565 -4.53268 57.5754 0.338687C60.3959 2.24941 15.3828 2.35278 10.299 8.61144C5.33372 14.5955 0.142785 36.2586 -1.04219 26.8311Z" fill="var(--fill-0, white)"/>
</g>
</g>
</g>
<g id="Mask group_2">
<mask id="mask1_0_4" style="mask-type:luminance" maskUnits="userSpaceOnUse" x="33" y="59" width="66" height="89">
<g id="Group_2">
<path id="rect4218-5" d="M41.9553 147.207H90.0722C94.9026 147.207 98.8184 143.291 98.8184 138.461V68.3213C98.8184 63.4909 94.9026 59.5751 90.0722 59.5751H41.9553C37.1249 59.5751 33.2091 63.4909 33.2091 68.3213V138.461C33.2091 143.291 37.1249 147.207 41.9553 147.207Z" fill="var(--fill-0, #FF3737)"/>
</g>
</mask>
<g mask="url(#mask1_0_4)">
<g id="path4221" filter="url(#filter1_f_0_4)">
<path fill-rule="evenodd" clip-rule="evenodd" d="M65.6408 65.7075C66.3683 67.744 67.8817 80.6753 64.478 85.5234C60.0443 91.2347 16.4974 89.122 13.8474 87.6951C11.426 86.5325 52.8999 87.6822 58.6391 80.0713C63.3606 73.5116 64.4336 62.1027 65.6408 65.7075Z" fill="var(--fill-0, black)" fill-opacity="0.196078"/>
</g>
</g>
</g>
</g>
<path id="Union" d="M52.8066 10C55.5681 10 57.8066 12.2438 57.8066 15.0118V75.9882C57.8066 78.7562 55.5681 81 52.8066 81H12.8066C10.0452 81 7.80664 78.7562 7.80664 75.9882V15.0118C7.80664 12.2438 10.0452 10 12.8066 10H52.8066ZM14.4733 14.1765C13.0926 14.1765 11.9733 15.2984 11.9733 16.6824V74.3176C11.9733 75.7016 13.0926 76.8235 14.4733 76.8235H51.14C52.5207 76.8235 53.64 75.7016 53.64 74.3176V16.6824C53.64 15.2984 52.5207 14.1765 51.14 14.1765H14.4733ZM47.8066 18.3529C48.7271 18.3529 49.4733 19.1009 49.4733 20.0235V70.9765C49.4733 71.8991 48.7271 72.6471 47.8066 72.6471H17.8066C16.8862 72.6471 16.14 71.8991 16.14 70.9765V20.0235C16.14 19.1009 16.8862 18.3529 17.8066 18.3529H47.8066ZM20.3066 67.6353C20.3066 68.0966 20.6797 68.4706 21.14 68.4706H24.7889L20.3066 63.9778V67.6353ZM41.0328 68.4706H44.4733C44.9335 68.4706 45.3066 68.0966 45.3066 67.6353V64.1866L41.0328 68.4706ZM20.3066 30.5879V60.4339L28.3244 68.4706H37.4972L45.3066 60.6428V30.3791L37.4754 22.5294H28.3462L20.3066 30.5879ZM21.14 22.5294C20.6797 22.5294 20.3066 22.9034 20.3066 23.3647V27.044L24.8106 22.5294H21.14ZM45.3066 26.8352V23.3647C45.3066 22.9034 44.9335 22.5294 44.4733 22.5294H41.011L45.3066 26.8352Z" fill="var(--fill-0, #202C8E)"/>
</g>
<defs>
<filter id="filter0_f_0_4" x="-3.44823" y="-4.95311" width="62.2483" height="35.2255" filterUnits="userSpaceOnUse" color-interpolation-filters="sRGB">
<feFlood flood-opacity="0" result="BackgroundImageFix"/>
<feBlend mode="normal" in="SourceGraphic" in2="BackgroundImageFix" result="shape"/>
<feGaussianBlur stdDeviation="0.548823" result="effect1_foregroundBlur_0_4"/>
</filter>
<filter id="filter1_f_0_4" x="12.6479" y="63.9215" width="55.0611" height="26.4623" filterUnits="userSpaceOnUse" color-interpolation-filters="sRGB">
<feFlood flood-opacity="0" result="BackgroundImageFix"/>
<feBlend mode="normal" in="SourceGraphic" in2="BackgroundImageFix" result="shape"/>
<feGaussianBlur stdDeviation="0.548823" result="effect1_foregroundBlur_0_4"/>
</filter>
<clipPath id="clip0_0_4">
<rect width="65.5963" height="87.4618" fill="white"/>
</clipPath>
</defs>
</svg>
